<?xml version="1.0" encoding="utf-8"?>
<!-- Generator: Adobe Illustrator 25.4.0, SVG Export Plug-In . SVG Version: 6.00 Build 0)  -->
<svg version="1.1" id="Layer_1" xmlns="http://www.w3.org/2000/svg" xmlns:xlink="http://www.w3.org/1999/xlink" x="0px" y="0px"
     viewBox="0 0 37.9 38" style="enable-background:new 0 0 37.9 38;" xml:space="preserve">
<style type="text/css">
	.st0{fill:#333333;}
	.st1{fill:#FEFEFE;}
	.st2{fill:#FE733E;}
	.st3{fill:#B5D2F3;}
	.st4{fill:#FE684B;}
	.st5{fill:#FE6446;}
	.st6{fill:#FED6C8;}
	.st7{fill:#FEEBE3;}
	.st8{fill:#FE9166;}
	.st9{fill:#FE8F64;}
	.st10{fill:#E2F5FC;}
	.st11{fill:#CDECF6;}
	.st12{fill:#FE6B3C;}
	.st13{fill:#FE6142;}
	.st14{fill:#FE6143;}
	.st15{fill:#070909;}
	.st16{fill:#FDFCFB;}
	.st17{fill:#FEA777;}
	.st18{fill:#FDFEFE;}
	.st19{fill:#FBFDFE;}
	.st20{fill:#090B0B;}
	.st21{fill:#090C0C;}
</style>
    <g id="bkg">
	<path class="st0" d="M29.4,38H8.6C3.9,38,0,34.1,0,29.4V8.6C0,3.9,3.9,0,8.6,0h20.7c4.8,0,8.6,3.9,8.6,8.6v20.7
		C38,34.1,34.1,38,29.4,38z"/>
</g>
    <g id="g939">
	<path id="path10" class="st1" d="M17.4,27.8C17.4,27.8,17.4,27.8,17.4,27.8c0,0.1,0,0.2,0,0.3C17.4,28.1,17.4,28,17.4,27.8
		C17.4,27.8,17.3,27.8,17.4,27.8z"/>
        <path id="path12" class="st1" d="M23.8,19.5C23.8,19.5,23.8,19.5,23.8,19.5C23.8,19.5,23.8,19.5,23.8,19.5
		C23.8,19.5,23.8,19.5,23.8,19.5z"/>
        <path id="path14" class="st1" d="M19.8,9.2L19.8,9.2L19.8,9.2C19.8,9.2,19.8,9.2,19.8,9.2z"/>
        <path id="path20" class="st2" d="M23.2,29.8c0-0.4,0-0.7,0.1-1.1c0.1-0.8,0-1.6,0.2-2.3c0.1-0.4-0.2-0.9,0.2-1.2l0,0l-0.1-0.3
		c-0.1-0.2-0.1-0.4,0-0.6l0,0c0-0.7,0-1.4,0.1-2c0-0.9,0.1-1.9,0.1-2.8c0,0,0,0,0,0c-2,0.9-3.9-0.4-4.2-1.9c-0.2-1-0.1-2,0.7-2.7
		c0.1-0.1,0.2-0.3,0.4-0.4c0.3-1.9,0.1-3.7-1.6-5.1c0.2-0.1,0.5-0.1,0.7-0.1v0c-2-0.5-4.5,0.9-5.3,3c-0.3,0.6-0.4,1.3-0.3,2
		c2-0.9,3.8,0.2,4.3,1.9c0.5,1.8-0.9,3.6-2.7,3.6c-0.5,0-1-0.1-1.5-0.2c0,1,0.1,1.9,0.1,2.9l0,0c0.1,0.6,0.1,1.3,0.1,1.9
		c0,0.2,0,0.3,0,0.5l0,0c0,0.1,0,0.2,0,0.3c0.1,0.6,0.2,1.2,0.2,1.9c0,0,0,0,0,0c0,0,0,0,0,0c0,1.1,0.1,2.1,0.2,3.2
		c0,0.4-0.1,0.7-0.5,0.8c-0.5,0.1-0.9,0.3-1.4,0.4c0.6,0.1,1.3,0.1,1.9,0.1c0.7,0,1-0.3,1-1c0-0.4,0.1-0.9,0.1-1.3
		c0-0.8,0.1-1.5,0.1-2.3h0.1V29l0,0c0,0.3,0,0.7,0,1c0.1,1.6,0.1,1.5-1.4,1.9c0,0-0.1,0-0.1,0c0.1,0.1,0.2,0.1,0.3,0.2
		c0,0,0.1,0,0.1,0c0.4,0,0.7,0,1.1,0c0.7-0.1,1-0.4,1-1.1c0-0.4,0.1-0.8,0.1-1.3c0-0.6,0-1.1,0.1-1.7c0-0.1,0-0.2,0-0.3c0,0,0,0,0,0
		c-0.1,0,0-0.1,0.1,0.1c0-0.1,0-0.1,0-0.2v2.6l0,0c0,0.3,0,0.6,0,0.9c0,1.1-0.1,1.2-1.1,1.5c-0.3,0.1-0.6,0.1-0.9,0.2
		c-0.2,0.1-0.5,0-0.7,0.3c0.8,0,1.6,0.1,2.4-0.1c0.8-0.1,1.1-0.5,1.3-1.2c0.1-0.6,0.2-1.2,0.4-1.8c0,0,0,0.1,0.1,0.1
		c0.1,0.5,0.2,1.1,0.3,1.6c0.2,0.8,0.5,1.1,1.2,1.2c0.8,0.1,1.6,0,2.5,0.1C23,33,22.8,33,22.6,32.9c-0.5-0.2-1-0.3-1.6-0.5
		c-0.4-0.1-0.6-0.4-0.6-0.8c0-1.2,0-2.5,0-3.7h0.2c0.1,0.8,0.1,1.6,0.2,2.3c0.1,1.8,0.3,2,2.1,1.9c0.1-0.2,0.4,0,0.4-0.2
		c-0.4,0-0.8-0.2-1.2-0.3c-0.2-0.1-0.4-0.3-0.3-0.5c0-1.3,0-2.6,0.1-3.9c0.1,1.1,0.2,2.1,0.3,3.2c0,0.5,0.3,0.9,0.8,0.9
		c0.7,0,1.4,0,2.1,0c-0.4-0.2-0.8-0.3-1.2-0.4C23.1,30.7,23.1,30.7,23.2,29.8L23.2,29.8z M17.7,11.5c0,0.4-0.3,0.6-0.6,0.6
		c-0.4,0-0.7-0.2-0.7-0.7c0-0.3,0.3-0.6,0.6-0.6c0,0,0,0,0,0C17.5,10.8,17.7,11.1,17.7,11.5z M20.6,22.2c0,1-0.8,1.8-1.6,1.8
		c-0.8,0-1.6-1-1.6-1.9l0,0c0-0.3-0.1-0.5-0.2-0.9c0.6,0.4,1.1,0.8,1.7,0.8c0.7,0,1.2-0.3,1.7-0.7C20.8,21.6,20.5,21.9,20.6,22.2
		L20.6,22.2z"/>
        <path id="path22" class="st3" d="M14.4,24.3c0,0-0.1,0-0.1-0.1c-0.7-0.3-1.3-0.7-1.8-1.2c-1.9-1.7-3.2-3.8-3.5-6.3
		c-0.4-2.9,0.3-5.6,2.2-7.8c1.8-2.1,4-3.3,6.7-3.6c3-0.3,5.6,0.5,7.9,2.6c1.8,1.6,3,3.9,3.3,6.3c0.3,2.1-0.2,4.2-1.2,6
		c-1,1.7-2.3,3.1-4.1,3.9c0,0-0.1,0-0.1,0.1l0,0c-0.1,0.2-0.1,0.4,0,0.6l0,0c0,0,0.1-0.1,0.1-0.1c2.7-1.4,4.6-3.6,5.5-6.5
		c0.1-0.3,0.2-0.4,0.5-0.3c0.4,0,0.5-0.2,0.5-0.5c0-1.2,0-2.4,0-3.7c0-0.3-0.1-0.5-0.3-0.6c-0.5-0.1-0.6-0.4-0.7-0.8
		c-0.6-2-1.7-3.8-3.4-5.1c-3.4-2.7-7.2-3.2-11.2-1.4c-2.9,1.4-4.8,3.7-5.7,6.8c-0.1,0.2,0,0.4-0.4,0.4C8,13,7.8,13.3,7.8,13.7
		c0,1.2,0,2.4,0,3.7c0,0.4,0.2,0.6,0.6,0.5c0.4-0.1,0.4,0.1,0.5,0.4c0.3,1.2,0.8,2.2,1.6,3.2c1,1.4,2.3,2.6,4,3.3l0,0
		C14.5,24.6,14.4,24.5,14.4,24.3L14.4,24.3z"/>
        <path id="path28" class="st4" d="M14.4,25.1c-0.4,1-1.3,1-2.1,1.2c0.6,0.2,1.2,0.3,1.9,0.2c0.4-0.1,0.4,0.1,0.5,0.3c0,0,0,0,0,0.1
		c0,0,0,0,0,0C14.6,26.3,14.6,25.7,14.4,25.1z"/>
        <path id="path30" class="st5" d="M23.4,26.4c0.8,0.4,1.5,0,2.3-0.1C25,26,24,26.2,23.6,25.2l0,0C23.2,25.6,23.5,26,23.4,26.4z"/>
        <path id="path32" class="st6" d="M17.5,27.7c0,0.1,0,0.1,0,0.2c0,0.1,0,0.2,0,0.2c-0.1,0.5-0.2,1.1-0.1,1.7c0.2,0.1,0,0.3,0.2,0.4
		l0,0L17.5,27.7z"/>
        <path id="path34" class="st7" d="M16,26.8c0,0.8-0.1,1.5-0.1,2.3c0.1,0,0.2-0.1,0.2-0.1l0,0L16,26.8L16,26.8z"/>
        <path id="path36" class="st8" d="M13.8,32.2H15c0,0,0,0-0.1,0c-0.1-0.1-0.2-0.1-0.3-0.2C14.3,31.9,14,32,13.8,32.2z"/>
        <path id="path38" class="st9" d="M22.9,32.2h1.2c-0.2-0.2-0.5-0.2-0.8-0.2C23.2,32.1,23,32,22.9,32.2z"/>
        <path id="path40" class="st10" d="M23.7,24.2c1.8-0.9,3.1-2.2,4.1-3.9c1.1-1.8,1.5-3.9,1.2-6c-0.3-2.4-1.4-4.7-3.3-6.3
		c-2.2-2.1-4.9-2.9-7.9-2.6c-2.7,0.3-4.9,1.5-6.7,3.6c-1.9,2.3-2.6,5-2.2,7.8c0.3,2.5,1.6,4.6,3.5,6.3c0.5,0.5,1.1,0.9,1.8,1.2
		c0,0,0.1,0,0.1,0.1c0-0.6,0-1.3-0.1-1.9c0,0-0.1-0.1-0.1-0.1c-0.5-0.4-0.9-0.8-1.3-1.2c-0.1-0.1-0.3-0.2-0.3-0.5
		c-0.3,0.2-0.5,0.1-0.7-0.2c-0.9-1.2-1.5-2.7-1.6-4.3c-0.1-1.4,0.1-2.8,0.7-4.1c0.7-1.6,1.9-3,3.5-3.9c0.3-0.2,0.4,0,0.6,0.1
		c0.2,0,0.3-0.1,0.5-0.2l0-0.1c-0.2-0.3-0.2-0.7,0.2-0.8c0.4-0.1,0.6,0.2,0.6,0.6c2.8-0.9,5.4-0.6,7.8,1.3c1.8,1.4,2.8,3.2,3.1,5.4
		c0.4,2.8-0.6,5.2-2.5,7.2c-0.2,0.2-0.5,0.4-0.8,0.6c-0.1,0-0.1,0.1-0.2,0.1c-0.1,0.7-0.1,1.3-0.1,2l0,0
		C23.6,24.3,23.6,24.3,23.7,24.2z"/>
        <path id="path42" class="st11" d="M24.6,21.6c2-2,2.9-4.4,2.5-7.2c-0.3-2.2-1.3-4-3.1-5.4c-2.4-1.8-5-2.2-7.8-1.3c0,0,0,0,0,0
		C16,7.9,15.8,8.2,15.5,8c0,0,0,0-0.1,0c-0.1,0.1-0.3,0.2-0.5,0.2c0,0,0,0.1,0,0.1c-0.2,0.6-0.8,0.7-1.2,1.1
		c-1.1,0.9-1.9,2.1-2.4,3.4c-0.8,2.2-0.6,4.3,0.4,6.3c0.2,0.3,0.4,0.6,0.6,0.9c0.1,0.2,0.2,0.4,0.2,0.6v0l0,0c0,0.2,0.2,0.3,0.3,0.5
		c0.4,0.4,0.9,0.9,1.3,1.2c0,0,0.1,0.1,0.1,0.1l0,0c0-1-0.1-1.9-0.1-2.9c0,0,0,0,0,0c-0.8-0.6-1.5-1.3-1.6-2.3
		c-0.1-1.3,0.4-2.3,1.5-3c0,0,0,0,0,0l0,0c0-0.7,0.1-1.3,0.3-2c0.8-2.1,3.3-3.5,5.3-3c0,0,0,0,0,0c1.3,0.2,2.4,0.8,3.2,2
		c0.6,0.9,1,1.9,0.9,3l0,0c0.8,0.6,1.4,1.3,1.5,2.3c0.1,1.3-0.4,2.3-1.6,3l0,0v0c0,0.9-0.1,1.9-0.1,2.8c0.1,0,0.1,0,0.2-0.1
		C24.1,22,24.4,21.8,24.6,21.6L24.6,21.6z"/>
        <path id="path44" class="st12" d="M21.3,14.1c0.8-0.4,1.6-0.2,2.5,0.1c0,0,0.1,0,0.1,0c0.1-1.1-0.3-2.1-0.9-3
		c-0.8-1.1-1.9-1.7-3.2-2h0c-0.2,0-0.4,0-0.7,0.1c1.6,1.4,1.9,3.2,1.6,5.1c0.1,0,0.1,0,0.2-0.1C21,14.3,21.2,14.2,21.3,14.1z"/>
        <path id="path46" class="st13" d="M25.4,16.4c-0.1-1-0.7-1.7-1.5-2.3l0,0c0,0-0.1,0-0.1,0c-0.8-0.3-1.6-0.5-2.5-0.1
		c-0.2,0.1-0.4,0.2-0.5,0.3c-0.1,0-0.1,0-0.2,0.1c-0.1,0.1-0.2,0.3-0.4,0.4c-0.8,0.8-0.9,1.7-0.7,2.7c0.3,1.5,2.2,2.8,4.2,1.9
		c0,0,0,0,0,0C24.9,18.8,25.5,17.8,25.4,16.4z M22.4,19.1c-1.3,0-2.3-1.1-2.3-2.3s1.1-2.3,2.3-2.3s2.3,1.1,2.3,2.3c0,0,0,0,0,0
		C24.7,18.1,23.7,19.1,22.4,19.1C22.4,19.1,22.4,19.1,22.4,19.1z"/>
        <path id="path48" class="st14" d="M14.1,14.2c-1.1,0.7-1.6,1.7-1.5,3c0.1,1.1,0.7,1.8,1.6,2.3c0,0,0,0,0,0c0.5,0.2,1,0.2,1.5,0.2
		c1.8,0,3.2-1.9,2.7-3.6C17.9,14.4,16.1,13.3,14.1,14.2L14.1,14.2C14.1,14.2,14.1,14.2,14.1,14.2L14.1,14.2z M15.6,19.1
		c-1.3,0-2.3-1-2.4-2.3c0-1.3,1-2.3,2.3-2.4c0,0,0,0,0,0c1.3,0,2.3,1,2.4,2.3C17.9,18.1,16.9,19.1,15.6,19.1
		C15.6,19.1,15.6,19.1,15.6,19.1z"/>
        <path id="path50" class="st15" d="M17.7,22.4c-0.1-0.1-0.2-0.2-0.3-0.2l0,0c0,0.9,0.8,1.9,1.6,1.9c0.9,0,1.6-0.9,1.6-1.8
		c-0.3,0.2-0.5,0.5-0.9,0.6C19,23,18.3,22.9,17.7,22.4z"/>
        <path id="path52" class="st16" d="M20.7,21.3c-0.5,0.4-1.1,0.7-1.7,0.7c-0.7,0-1.1-0.4-1.7-0.8c0.1,0.4,0.1,0.6,0.2,0.9l0,0
		c0.2,0,0.2,0.1,0.3,0.2c0.6,0.6,1.3,0.6,2,0.4c0.4-0.1,0.6-0.4,0.9-0.6C20.5,21.9,20.8,21.6,20.7,21.3z"/>
        <path id="path54" class="st17" d="M17,10.8c-0.3,0-0.6,0.2-0.7,0.6c0,0,0,0,0,0c0,0.5,0.3,0.7,0.7,0.7c0.4,0,0.6-0.3,0.6-0.6
		C17.7,11.1,17.5,10.8,17,10.8z"/>
        <path id="path56" class="st18" d="M12.5,20.6c0-0.2,0-0.4-0.2-0.6c-0.2-0.3-0.4-0.6-0.6-0.9c-1-2-1.2-4.2-0.4-6.3
		c0.5-1.3,1.3-2.5,2.4-3.4c0.4-0.3,1-0.5,1.2-1.1c0,0,0-0.1,0-0.1c-0.2-0.1-0.3-0.3-0.6-0.1c-1.5,0.9-2.7,2.3-3.5,3.9
		c-0.6,1.3-0.7,2.7-0.7,4.1c0.1,1.6,0.6,3.1,1.6,4.3C12,20.7,12.3,20.8,12.5,20.6L12.5,20.6L12.5,20.6z"/>
        <path id="path58" class="st19" d="M16.2,7.8C16.2,7.8,16.2,7.8,16.2,7.8c0-0.4-0.2-0.7-0.6-0.6c-0.4,0.1-0.4,0.5-0.2,0.8l0,0.1
		c0,0,0,0,0.1,0C15.8,8.2,16,7.9,16.2,7.8L16.2,7.8z"/>
        <path id="path60" class="st1" d="M24.7,16.9c0-1.3-1-2.3-2.2-2.3c0,0,0,0-0.1,0c-1.3,0-2.3,1-2.4,2.3c0,1.3,1,2.3,2.3,2.4
		c0,0,0,0,0,0C23.6,19.2,24.7,18.2,24.7,16.9C24.7,16.9,24.7,16.9,24.7,16.9z M22.5,17.1c-0.4,0-0.7-0.2-0.7-0.6c0,0,0,0,0-0.1
		c0-0.4,0.3-0.7,0.7-0.8c0,0,0,0,0.1,0c0.4,0,0.7,0.3,0.7,0.7C23.1,16.8,22.9,17.1,22.5,17.1z"/>
        <path id="path62" class="st1" d="M15.5,14.5c-1.3,0-2.3,1-2.3,2.3c0,1.3,1,2.3,2.3,2.3c0,0,0,0,0,0c1.3,0,2.3-1,2.3-2.3
		C17.9,15.5,16.9,14.5,15.5,14.5C15.6,14.5,15.6,14.5,15.5,14.5z M15.5,17.1c-0.4,0-0.7-0.2-0.7-0.6c0,0,0-0.1,0-0.1
		c0-0.4,0.3-0.7,0.7-0.7c0,0,0,0,0.1,0c0.4,0,0.7,0.3,0.7,0.7C16.2,16.8,16,17.1,15.5,17.1z"/>
        <path id="path64" class="st20" d="M22.5,15.7c-0.4,0-0.7,0.3-0.7,0.7c0,0,0,0,0,0.1c0,0.4,0.3,0.7,0.7,0.7c0,0,0.1,0,0.1,0
		c0.4,0,0.7-0.3,0.7-0.7C23.2,16,22.9,15.7,22.5,15.7z"/>
        <path id="path66" class="st21" d="M15.5,15.7c-0.4,0-0.7,0.3-0.7,0.7c0,0,0,0,0,0.1c0,0.4,0.3,0.7,0.7,0.7c0,0,0.1,0,0.1,0
		c0.4,0,0.7-0.3,0.7-0.7C16.2,16,16,15.7,15.5,15.7z"/>
</g>
</svg>