<?xml version="1.0" encoding="utf-8"?>
<!-- Generator: Adobe Illustrator 25.4.0, SVG Export Plug-In . SVG Version: 6.00 Build 0)  -->
<svg version="1.1" id="Layer_1" xmlns="http://www.w3.org/2000/svg" xmlns:xlink="http://www.w3.org/1999/xlink" x="0px" y="0px"
	 viewBox="0 0 37.9 38" style="enable-background:new 0 0 37.9 38;" xml:space="preserve">
<style type="text/css">
	.st0{fill:#252F3E;}
	.st1{fill:#FFFFFF;}
	.st2{fill-rule:evenodd;clip-rule:evenodd;fill:#FF9900;}
</style>
<g id="bkg">
	<path class="st0" d="M29.4,38H8.6C3.9,38,0,34.1,0,29.4V8.6C0,3.9,3.9,0,8.6,0h20.7c4.8,0,8.6,3.9,8.6,8.6v20.7
		C38,34.1,34.1,38,29.4,38z"/>
</g>
<g>
	<path class="st1" d="M12.8,16.7c0,0.3,0,0.6,0.1,0.8c0.1,0.2,0.2,0.4,0.3,0.7c0,0.1,0.1,0.2,0.1,0.2c0,0.1-0.1,0.2-0.2,0.3
		l-0.6,0.4c-0.1,0.1-0.2,0.1-0.2,0.1c-0.1,0-0.2,0-0.3-0.1c-0.1-0.1-0.2-0.3-0.3-0.4c-0.1-0.2-0.2-0.3-0.3-0.6
		c-0.7,0.9-1.7,1.3-2.8,1.3c-0.8,0-1.4-0.2-1.9-0.7c-0.5-0.5-0.7-1.1-0.7-1.8c0-0.8,0.3-1.5,0.9-1.9c0.6-0.5,1.3-0.7,2.3-0.7
		c0.3,0,0.7,0,1,0.1c0.3,0,0.7,0.1,1.1,0.2v-0.7c0-0.7-0.2-1.2-0.4-1.5c-0.3-0.3-0.8-0.4-1.5-0.4c-0.3,0-0.7,0-1,0.1
		c-0.3,0.1-0.7,0.2-1,0.3c-0.2,0.1-0.3,0.1-0.3,0.1s-0.1,0-0.2,0c-0.1,0-0.2-0.1-0.2-0.3v-0.5c0-0.2,0-0.3,0.1-0.3s0.1-0.1,0.3-0.2
		C7.2,11,7.6,10.8,8,10.7c0.5-0.1,1-0.2,1.5-0.2c1.1,0,1.9,0.3,2.5,0.8c0.5,0.5,0.8,1.3,0.8,2.3L12.8,16.7L12.8,16.7z M8.9,18.1
		c0.3,0,0.6-0.1,1-0.2c0.3-0.1,0.6-0.3,0.9-0.6c0.2-0.2,0.3-0.4,0.3-0.6c0.1-0.2,0.1-0.5,0.1-0.8v-0.4c-0.3-0.1-0.6-0.1-0.9-0.2
		c-0.3,0-0.6-0.1-0.9-0.1c-0.6,0-1.1,0.1-1.4,0.4c-0.3,0.3-0.5,0.6-0.5,1.1c0,0.4,0.1,0.8,0.3,1C8.2,18,8.5,18.1,8.9,18.1L8.9,18.1z
		 M16.5,19.1c-0.2,0-0.3,0-0.4-0.1C16.1,19,16,18.8,16,18.7l-2.2-7.3c-0.1-0.2-0.1-0.3-0.1-0.4c0-0.2,0.1-0.2,0.2-0.2h0.9
		c0.2,0,0.3,0,0.4,0.1c0.1,0.1,0.1,0.2,0.2,0.4l1.6,6.2l1.5-6.2c0-0.2,0.1-0.3,0.2-0.4s0.2-0.1,0.4-0.1h0.8c0.2,0,0.3,0,0.4,0.1
		c0.1,0.1,0.1,0.2,0.2,0.4l1.5,6.3l1.6-6.3c0.1-0.2,0.1-0.3,0.2-0.4c0.1-0.1,0.2-0.1,0.4-0.1h0.9c0.2,0,0.2,0.1,0.2,0.2
		c0,0,0,0.1,0,0.2c0,0.1,0,0.1-0.1,0.2l-2.3,7.3c-0.1,0.2-0.1,0.3-0.2,0.4s-0.2,0.1-0.4,0.1h-0.8c-0.2,0-0.3,0-0.4-0.1
		c-0.1-0.1-0.1-0.2-0.2-0.4l-1.5-6.1l-1.5,6.1c0,0.2-0.1,0.3-0.2,0.4c-0.1,0.1-0.2,0.1-0.4,0.1H16.5z M28.6,19.4
		c-0.5,0-1-0.1-1.5-0.2c-0.5-0.1-0.8-0.2-1.1-0.4c-0.2-0.1-0.3-0.2-0.3-0.3s-0.1-0.2-0.1-0.3v-0.5c0-0.2,0.1-0.3,0.2-0.3
		c0.1,0,0.1,0,0.2,0c0.1,0,0.1,0.1,0.2,0.1c0.3,0.1,0.7,0.3,1,0.3c0.4,0.1,0.7,0.1,1.1,0.1c0.6,0,1.1-0.1,1.4-0.3
		c0.3-0.2,0.5-0.5,0.5-0.9c0-0.3-0.1-0.5-0.3-0.7c-0.2-0.2-0.5-0.3-1-0.5l-1.4-0.4c-0.7-0.2-1.2-0.5-1.5-1c-0.3-0.4-0.5-0.9-0.5-1.4
		c0-0.4,0.1-0.7,0.3-1c0.2-0.3,0.4-0.6,0.7-0.8c0.3-0.2,0.6-0.4,1-0.5c0.4-0.1,0.8-0.2,1.2-0.2c0.2,0,0.4,0,0.6,0
		c0.2,0,0.4,0.1,0.6,0.1c0.2,0,0.4,0.1,0.5,0.2s0.3,0.1,0.4,0.2c0.1,0.1,0.2,0.2,0.3,0.2c0.1,0.1,0.1,0.2,0.1,0.3V12
		c0,0.2-0.1,0.3-0.2,0.3c-0.1,0-0.2,0-0.4-0.1c-0.5-0.2-1.1-0.4-1.8-0.4c-0.5,0-1,0.1-1.3,0.3c-0.3,0.2-0.4,0.5-0.4,0.8
		c0,0.3,0.1,0.5,0.3,0.7s0.5,0.4,1,0.5l1.3,0.4c0.7,0.2,1.2,0.5,1.5,0.9c0.3,0.4,0.4,0.8,0.4,1.3c0,0.4-0.1,0.8-0.2,1.1
		c-0.2,0.3-0.4,0.6-0.7,0.8c-0.3,0.2-0.6,0.4-1,0.5C29.5,19.3,29.1,19.4,28.6,19.4L28.6,19.4z"/>
	<g>
		<path class="st2" d="M30.4,24c-3.1,2.3-7.6,3.5-11.5,3.5c-5.4,0-10.3-2-14-5.3c-0.3-0.3,0-0.6,0.3-0.4c4,2.3,8.9,3.7,14,3.7
			c3.4,0,7.2-0.7,10.7-2.2C30.5,23,30.9,23.6,30.4,24z"/>
		<path class="st2" d="M31.7,22.5c-0.4-0.5-2.6-0.2-3.6-0.1c-0.3,0-0.3-0.2-0.1-0.4c1.8-1.2,4.7-0.9,5-0.5c0.3,0.4-0.1,3.3-1.8,4.7
			c-0.3,0.2-0.5,0.1-0.4-0.2C31.3,25.1,32.1,23,31.7,22.5z"/>
	</g>
</g>
</svg>
