<?xml version="1.0" encoding="utf-8"?>
<!-- Generator: Adobe Illustrator 25.4.0, SVG Export Plug-In . SVG Version: 6.00 Build 0)  -->
<svg version="1.1" xmlns="http://www.w3.org/2000/svg" xmlns:xlink="http://www.w3.org/1999/xlink" x="0px" y="0px"
	 viewBox="0 0 37.9 38" style="enable-background:new 0 0 37.9 38;" xml:space="preserve">
<style type="text/css">
	.st0{fill:#161614;}
	.st1{fill:#FFFFFF;}
</style>
<g id="Layer_1">
	<g id="bkg">
		<path class="st0" d="M29.4,38H8.6C3.9,38,0,34.1,0,29.4V8.6C0,3.9,3.9,0,8.6,0h20.7c4.8,0,8.6,3.9,8.6,8.6v20.7
			C38,34.1,34.1,38,29.4,38z"/>
	</g>
</g>
<g id="Layer_2">
	<g>
		<path class="st1" d="M19,4C10.5,4,3.6,10.9,3.6,19.4C3.6,26.2,8,31.9,14.1,34c0.8,0.1,1.1-0.3,1.1-0.7c0-0.4,0-1.6,0-2.9
			c-4.3,0.9-5.2-1.8-5.2-1.8c-0.7-1.8-1.7-2.3-1.7-2.3c-1.4-1,0.1-0.9,0.1-0.9c1.5,0.1,2.4,1.6,2.4,1.6c1.4,2.4,3.6,1.7,4.5,1.3
			c0.1-1,0.5-1.7,1-2.1c-3.4-0.4-7-1.7-7-7.6c0-1.7,0.6-3.1,1.6-4.1c-0.2-0.4-0.7-2,0.1-4.1c0,0,1.3-0.4,4.2,1.6
			c1.2-0.3,2.5-0.5,3.8-0.5c1.3,0,2.6,0.2,3.9,0.5c2.9-2,4.2-1.6,4.2-1.6c0.8,2.1,0.3,3.7,0.2,4.1c1,1.1,1.6,2.4,1.6,4.1
			c0,5.9-3.6,7.2-7,7.6c0.6,0.5,1,1.4,1,2.8c0,2.1,0,3.7,0,4.2c0,0.4,0.3,0.9,1.1,0.7c6.1-2,10.5-7.8,10.5-14.6
			C34.3,10.9,27.4,4,19,4"/>
		<path class="st1" d="M9.3,25.9c0,0.1-0.2,0.1-0.3,0c-0.1-0.1-0.2-0.2-0.1-0.2c0-0.1,0.2-0.1,0.3,0C9.3,25.7,9.4,25.8,9.3,25.9
			 M10.1,26.6c-0.1,0.1-0.2,0-0.3-0.1c-0.1-0.1-0.1-0.3,0-0.3c0.1-0.1,0.2,0,0.3,0.1C10.1,26.4,10.2,26.5,10.1,26.6 M10.6,27.4
			c-0.1,0.1-0.2,0-0.3-0.1c-0.1-0.1-0.1-0.3,0-0.4c0.1-0.1,0.2,0,0.3,0.1C10.7,27.2,10.7,27.4,10.6,27.4 M11.5,28.4
			c-0.1,0.1-0.3,0.1-0.4-0.1C11,28.3,10.9,28.1,11,28c0.1-0.1,0.3-0.1,0.4,0.1C11.5,28.2,11.6,28.4,11.5,28.4 M12.6,28.8
			c0,0.1-0.2,0.2-0.4,0.1c-0.2-0.1-0.3-0.2-0.3-0.3c0-0.1,0.2-0.2,0.4-0.1C12.5,28.5,12.7,28.7,12.6,28.8 M13.9,28.9
			c0,0.1-0.1,0.2-0.3,0.2c-0.2,0-0.3-0.1-0.3-0.2c0-0.1,0.1-0.2,0.3-0.2C13.8,28.7,13.9,28.8,13.9,28.9 M15.2,28.9
			c0,0.1-0.1,0.3-0.3,0.3c-0.2,0-0.3,0-0.4-0.2c0-0.1,0.1-0.3,0.3-0.3C15,28.7,15.2,28.8,15.2,28.9"/>
	</g>
</g>
</svg>