<?xml version="1.0" encoding="utf-8"?>
<!-- Generator: Adobe Illustrator 25.4.0, SVG Export Plug-In . SVG Version: 6.00 Build 0)  -->
<svg version="1.1" id="Layer_1" xmlns="http://www.w3.org/2000/svg" xmlns:xlink="http://www.w3.org/1999/xlink" x="0px" y="0px"
	 viewBox="0 0 37.9 38" style="enable-background:new 0 0 37.9 38;" xml:space="preserve">
<style type="text/css">
	.st0{fill:#293173;}
	.st1{fill:#FFFFFF;}
</style>
<g id="bkg">
	<path class="st0" d="M29.4,38H8.6C3.9,38,0,34.1,0,29.4V8.6C0,3.9,3.9,0,8.6,0h20.7c4.8,0,8.6,3.9,8.6,8.6v20.7
		C38,34.1,34.1,38,29.4,38z"/>
</g>
<g>
	<path class="st1" d="M12.3,10.5c0,0-0.1-0.1-0.1-0.1c-0.7-0.7-1.3-1.5-1.6-2.5c-0.1-0.3-0.2-0.5-0.2-0.8c0,0,0-0.1,0-0.1
		c0-0.4,0.3-0.6,0.6-0.5c0.1,0,0.2,0.1,0.3,0.1c0.4,0.2,0.7,0.5,1,0.8c0.5,0.6,1,1.2,1.2,1.9c0,0,0,0,0,0c0,0,0,0,0,0
		c1.4-0.8,3-1.3,4.7-1.4c0-0.1,0-0.1,0-0.1c-0.2-0.7-0.2-1.4-0.2-2.1c0-0.4,0.1-0.8,0.3-1.3c0.1-0.2,0.2-0.4,0.3-0.6
		c0.1-0.1,0.1-0.1,0.2-0.2c0.1-0.1,0.3-0.1,0.5,0c0.1,0.1,0.3,0.2,0.3,0.4C19.9,4.5,20,4.8,20,5.1c0.1,0.6,0.2,1.3,0.1,1.9
		c0,0.4-0.1,0.8-0.2,1.1c0.4,0.1,0.8,0.1,1.2,0.2c0.4,0.1,0.8,0.2,1.2,0.3c0.4,0.1,0.8,0.3,1.1,0.5c0.4,0.2,0.7,0.4,1.1,0.6
		c0,0,0-0.1,0-0.1c0.4-1,1-2,1.9-2.7c0.2-0.2,0.4-0.3,0.7-0.4c0.1,0,0.1,0,0.2,0c0.4,0,0.5,0.2,0.5,0.5c0,0.2,0,0.4,0,0.6
		c-0.1,0.5-0.3,1-0.6,1.4c-0.4,0.6-0.9,1.2-1.4,1.7c0,0,0,0-0.1,0.1c0.6,0.5,1.1,1.1,1.5,1.8c0,0-0.1,0-0.1,0c-0.6,0-1.2,0-1.8,0
		c-0.1,0-0.1,0-0.2-0.1c-1.3-1.5-3.1-2.4-5.1-2.7c-0.6-0.1-1.2-0.1-1.7-0.1c-1.7,0.1-3.4,0.7-4.7,1.8c-0.4,0.3-0.7,0.6-1,0.9
		c-0.1,0.1-0.1,0.1-0.2,0.1c-0.6,0-1.2,0-1.7,0h-0.1c0-0.1,0.4-0.6,0.8-1.1C11.6,11.1,12,10.8,12.3,10.5z"/>
	<path class="st1" d="M27.1,23.5c-0.4,0.6-0.9,1.1-1.4,1.6c0,0,0.1,0.1,0.1,0.1c0.9,0.7,1.6,1.7,1.9,2.8c0.1,0.3,0.1,0.5,0.1,0.8
		c0,0.1,0,0.1,0,0.2c-0.1,0.2-0.3,0.3-0.5,0.3c-0.1,0-0.3-0.1-0.4-0.1c-0.2-0.1-0.4-0.2-0.5-0.3c-0.9-0.7-1.5-1.6-1.9-2.7
		c0,0,0-0.1,0-0.1c-0.5,0.3-0.9,0.6-1.4,0.8c-0.5,0.2-1,0.4-1.5,0.6c-0.5,0.1-1.1,0.2-1.6,0.3c0,0,0,0.1,0,0.1
		c0.2,0.7,0.2,1.4,0.2,2.1c0,0.4-0.1,0.9-0.3,1.3c-0.1,0.2-0.1,0.3-0.2,0.5c0,0.1-0.1,0.1-0.1,0.2c-0.2,0.2-0.5,0.2-0.7,0
		c-0.1-0.1-0.2-0.2-0.2-0.3c-0.2-0.3-0.3-0.7-0.3-1.1c-0.1-0.5-0.1-1-0.1-1.5c0-0.4,0.1-0.7,0.2-1.1c0,0,0-0.1,0-0.1c0,0,0,0,0,0
		c-1.6-0.1-3.2-0.6-4.7-1.4c0,0.1,0,0.1-0.1,0.1c-0.4,0.9-1,1.7-1.8,2.4c-0.2,0.2-0.4,0.3-0.7,0.4c-0.1,0-0.2,0.1-0.4,0
		c-0.1,0-0.3-0.1-0.3-0.3c-0.1-0.2-0.1-0.4,0-0.6c0-0.3,0.1-0.6,0.2-0.8c0.4-0.8,0.9-1.6,1.5-2.2c0,0,0.1,0,0.1-0.1c0,0,0,0,0,0
		c-0.6-0.5-1.2-1.1-1.6-1.8c0.1,0,0.1,0,0.1,0c0.6,0,1.2,0,1.8,0c0.1,0,0.2,0,0.2,0.1c0.7,0.7,1.4,1.2,2.3,1.7
		c0.9,0.5,1.9,0.7,2.9,0.9c2.7,0.3,5-0.6,7-2.5c0.1-0.1,0.2-0.1,0.3-0.1c0.6,0,1.1,0,1.7,0L27.1,23.5L27.1,23.5z"/>
	<path class="st1" d="M24.6,14.9c0.2,0,0.3,0,0.5,0c0.2,0,0.3,0,0.4,0.2c0.7,0.7,1.5,1.3,2.2,2c0,0,0.1,0.1,0.1,0.1
		c0,0,0.1-0.1,0.1-0.1c0.8-0.7,1.5-1.4,2.3-2.1c0.1-0.1,0.2-0.1,0.2-0.1c0.2,0,0.4,0,0.6,0V21c-0.1,0-1.4,0-1.6,0v-3.1l0,0
		c-0.5,0.5-1,0.9-1.6,1.4c-0.5-0.5-1.1-1-1.6-1.4l0,0c0,0.3,0,0.5,0,0.8c0,0.3,0,0.5,0,0.8V21h-1.6C24.6,20.9,24.6,15.3,24.6,14.9z"
		/>
	<path class="st1" d="M10,14.9h1.6c0,0.1,0,5.9,0,6.1h-1.6c0-0.4,0-0.8,0-1.2c0-0.4,0-0.8,0-1.2H8.1V21c-0.1,0-1.5,0-1.6,0v-6.1h1.6
		v2.1c0.1,0,1.8,0,1.9,0c0-0.2,0-0.3,0-0.5c0-0.2,0-0.4,0-0.5c0-0.2,0-0.4,0-0.5C10,15.3,10,15.1,10,14.9z"/>
	<path class="st1" d="M13.5,21v-6.1c0.1,0,3.5,0,3.8,0v1.3c-0.1,0-0.1,0-0.2,0c-0.6,0-1.2,0-1.8,0h-0.2v1H17v1.3h-1.9
		c0,0.1,0,0.9,0,1.1c0,0,0.1,0,0.2,0c0.6,0,1.2,0,1.8,0h0.2V21H13.5z"/>
	<path class="st1" d="M19.1,21c0-0.2,0-6,0-6.1h1.6v4.5c0.1,0,0.1,0,0.2,0c0.6,0,1.2,0,1.9,0c0.1,0,0.1,0,0.2,0V21L19.1,21z"/>
</g>
</svg>
