<?xml version="1.0" encoding="utf-8"?>
<!-- Generator: Adobe Illustrator 25.4.0, SVG Export Plug-In . SVG Version: 6.00 Build 0)  -->
<svg version="1.1" xmlns="http://www.w3.org/2000/svg" xmlns:xlink="http://www.w3.org/1999/xlink" x="0px" y="0px"
	 viewBox="0 0 37.9 38" style="enable-background:new 0 0 37.9 38;" xml:space="preserve">
<style type="text/css">
	.st0{fill:#326DE6;}
	.st1{fill:#FFFFFF;}
</style>
<g id="bkg">
	<path class="st0" d="M29.4,38H8.6C3.9,38,0,34.1,0,29.4V8.6C0,3.9,3.9,0,8.6,0h20.7c4.8,0,8.6,3.9,8.6,8.6v20.7
		C38,34.1,34.1,38,29.4,38z"/>
</g>
<g id="Layer_3">
	<g>
		<path class="st1" d="M32.5,21.8L32.5,21.8L32.5,21.8C32.5,21.8,32.5,21.8,32.5,21.8L32.5,21.8C32.5,21.8,32.4,21.8,32.5,21.8
			c-0.1,0-0.2-0.1-0.2-0.1c-0.2,0-0.3-0.1-0.5-0.1c-0.1,0-0.2,0-0.3,0h0c-0.6-0.1-1-0.1-1.4-0.2c-0.2-0.1-0.2-0.2-0.3-0.3
			c0,0,0,0,0-0.1l0,0L29.4,21c0.2-1.2,0.1-2.5-0.2-3.8c-0.3-1.3-0.8-2.4-1.5-3.5l0.3-0.2v-0.1c0-0.1,0-0.3,0.1-0.4
			c0.3-0.3,0.7-0.5,1.2-0.8l0,0c0.1-0.1,0.2-0.1,0.2-0.1c0.2-0.1,0.3-0.2,0.5-0.3c0,0,0.1-0.1,0.1-0.1c0,0,0.1,0,0.1-0.1l0,0
			c0.4-0.3,0.5-0.9,0.2-1.2c-0.1-0.2-0.4-0.3-0.6-0.3c-0.2,0-0.4,0.1-0.6,0.2l0,0l0,0c0,0,0,0-0.1,0.1c-0.1,0-0.1,0.1-0.1,0.1
			c-0.1,0.1-0.2,0.2-0.3,0.4c-0.1,0.1-0.1,0.1-0.2,0.2l0,0c-0.4,0.4-0.7,0.7-1.1,1c-0.1,0.1-0.2,0.1-0.2,0.1c-0.1,0-0.1,0-0.2,0
			h-0.1l0,0l-0.3,0.2c-0.3-0.4-0.7-0.7-1.1-1C23.9,10,22,9.3,20,9.1l0-0.3c0,0,0,0-0.1-0.1c-0.1-0.1-0.2-0.2-0.2-0.3
			c0-0.4,0-0.9,0.1-1.4v0c0-0.1,0-0.2,0.1-0.3c0-0.2,0.1-0.3,0.1-0.5V5.9V5.9l0,0l0,0c0-0.5-0.4-0.9-0.8-0.9c-0.2,0-0.4,0.1-0.6,0.3
			s-0.2,0.4-0.2,0.6l0,0l0,0v0.1v0.2c0,0.2,0,0.3,0.1,0.5c0,0.1,0,0.2,0.1,0.3v0c0.1,0.5,0.1,1,0.1,1.4c0,0.2-0.1,0.3-0.2,0.3
			c0,0,0,0-0.1,0.1l0,0l0,0.3c-0.5,0.1-1,0.1-1.4,0.2c-2,0.5-3.9,1.5-5.3,3l-0.3-0.2h-0.1c-0.1,0-0.1,0-0.2,0c-0.1,0-0.2,0-0.2-0.1
			c-0.3-0.2-0.7-0.6-1.1-1l0,0c-0.1-0.1-0.1-0.1-0.2-0.2c-0.1-0.1-0.2-0.2-0.3-0.4c0,0-0.1-0.1-0.1-0.1c0,0-0.1,0-0.1-0.1l0,0
			c-0.2-0.1-0.4-0.2-0.6-0.2c-0.2,0-0.5,0.1-0.6,0.3c-0.3,0.3-0.2,0.9,0.2,1.2l0,0l0,0c0,0,0,0,0.1,0c0.1,0,0.1,0.1,0.1,0.1
			c0.2,0.1,0.3,0.2,0.5,0.3c0.1,0,0.2,0.1,0.2,0.1l0,0c0.5,0.3,0.9,0.5,1.2,0.8c0.1,0.1,0.1,0.3,0.1,0.4v0.1l0,0l0.3,0.2
			c-0.1,0.1-0.1,0.1-0.1,0.2c-1.3,2.1-1.8,4.6-1.5,7L8.4,21c0,0,0,0,0,0.1c-0.1,0.1-0.1,0.2-0.3,0.3c-0.4,0.1-0.9,0.2-1.4,0.2h0
			c-0.1,0-0.2,0-0.3,0c-0.2,0-0.3,0-0.5,0.1c-0.1,0-0.1,0-0.2,0c0,0-0.1,0-0.1,0l0,0l0,0c-0.5,0.1-0.8,0.6-0.7,1
			c0.1,0.4,0.4,0.6,0.9,0.6c0.1,0,0.1,0,0.2,0l0,0l0,0c0,0,0.1,0,0.1,0c0.1,0,0.1,0,0.2,0c0.2-0.1,0.3-0.1,0.5-0.2
			c0.1,0,0.2-0.1,0.2-0.1h0c0.5-0.2,1-0.3,1.4-0.4h0.1c0.2,0,0.3,0.1,0.3,0.1c0,0,0,0,0.1,0l0,0l0.4-0.1c0.6,2,1.9,3.7,3.5,5
			c0.4,0.3,0.7,0.5,1.1,0.8l-0.2,0.3c0,0,0,0,0,0.1c0.1,0.1,0.1,0.2,0.1,0.4c-0.2,0.4-0.4,0.8-0.7,1.3v0c-0.1,0.1-0.1,0.1-0.2,0.2
			c-0.1,0.1-0.2,0.3-0.3,0.4c0,0-0.1,0.1-0.1,0.1c0,0,0,0.1,0,0.1l0,0l0,0c-0.2,0.5-0.1,1,0.3,1.1c0.1,0.1,0.2,0.1,0.3,0.1
			c0.3,0,0.6-0.2,0.8-0.5l0,0l0,0c0,0,0-0.1,0-0.1c0-0.1,0.1-0.1,0.1-0.1c0.1-0.2,0.1-0.3,0.2-0.5c0-0.1,0.1-0.2,0.1-0.2l0,0
			c0.2-0.5,0.3-1,0.6-1.3c0.1-0.2,0.2-0.2,0.3-0.2c0,0,0,0,0.1,0l0,0l0.2-0.3c1.2,0.5,2.4,0.7,3.7,0.7c0.8,0,1.6-0.1,2.3-0.3
			c0.5-0.1,0.9-0.2,1.4-0.4l0.2,0.3c0,0,0,0,0.1,0c0.1,0,0.2,0.1,0.3,0.2c0.2,0.4,0.4,0.8,0.6,1.3v0c0,0.1,0.1,0.2,0.1,0.2
			c0.1,0.2,0.1,0.3,0.2,0.5c0,0.1,0.1,0.1,0.1,0.1c0,0,0,0.1,0,0.1l0,0l0,0c0.2,0.3,0.5,0.5,0.8,0.5c0.1,0,0.2,0,0.3-0.1
			c0.2-0.1,0.3-0.3,0.4-0.5c0.1-0.2,0.1-0.5-0.1-0.7l0,0l0,0c0,0,0,0,0-0.1c0-0.1-0.1-0.1-0.1-0.1c-0.1-0.2-0.2-0.3-0.3-0.4
			c-0.1-0.1-0.1-0.1-0.2-0.2v0c-0.3-0.5-0.6-0.9-0.7-1.3c-0.1-0.2,0-0.3,0-0.4c0,0,0,0,0-0.1l0,0l-0.1-0.3c1.4-0.8,2.6-2,3.5-3.4
			c0.5-0.7,0.9-1.6,1.1-2.4l0.3,0.1c0,0,0,0,0.1,0c0.1-0.1,0.2-0.1,0.3-0.1h0.1c0.4,0.1,0.9,0.2,1.4,0.4h0c0.1,0,0.2,0.1,0.2,0.1
			c0.2,0.1,0.3,0.1,0.5,0.2c0.1,0,0.1,0,0.2,0c0,0,0.1,0,0.1,0l0,0c0.1,0,0.1,0,0.2,0c0.4,0,0.7-0.3,0.9-0.6
			C33.3,22.3,33,21.9,32.5,21.8L32.5,21.8z M20.2,20.5L19,21l-1.2-0.6l-0.3-1.3l0.8-1h1.3l0.8,1L20.2,20.5L20.2,20.5z M27.1,17.7
			c0.2,0.9,0.3,1.8,0.2,2.7l-4.1-1.2c-0.4-0.1-0.6-0.5-0.5-0.9c0-0.1,0.1-0.2,0.2-0.3l3.2-2.9C26.6,15.9,26.9,16.8,27.1,17.7
			L27.1,17.7z M24.9,13.6l-3.5,2.5c-0.3,0.2-0.7,0.1-0.9-0.2c-0.1-0.1-0.1-0.2-0.1-0.3l-0.2-4.3C21.9,11.5,23.6,12.3,24.9,13.6
			L24.9,13.6z M17.1,11.4c0.3-0.1,0.6-0.1,0.9-0.2l-0.2,4.3c0,0.4-0.3,0.7-0.7,0.7c-0.1,0-0.2,0-0.3-0.1l-3.5-2.5
			C14.3,12.5,15.6,11.7,17.1,11.4L17.1,11.4z M11.9,15.2l3.2,2.8c0.3,0.2,0.3,0.7,0.1,1c-0.1,0.1-0.2,0.2-0.3,0.2l-4.1,1.2
			C10.5,18.6,10.9,16.7,11.9,15.2L11.9,15.2z M11.2,22.4l4.2-0.7c0.3,0,0.7,0.2,0.7,0.6c0,0.2,0,0.3,0,0.4l0,0l-1.6,3.9
			C13,25.6,11.8,24.1,11.2,22.4L11.2,22.4z M20.9,27.7c-0.6,0.1-1.2,0.2-1.9,0.2c-0.9,0-1.8-0.2-2.7-0.4l2.1-3.8
			c0.2-0.2,0.6-0.3,0.9-0.2c0.1,0.1,0.2,0.2,0.3,0.3l0,0l2,3.7C21.4,27.6,21.2,27.6,20.9,27.7L20.9,27.7z M26.1,24
			c-0.7,1.1-1.5,1.9-2.6,2.6l-1.7-4c-0.1-0.3,0.1-0.7,0.4-0.8c0.1-0.1,0.2-0.1,0.4-0.1l4.3,0.7C26.7,22.9,26.4,23.5,26.1,24L26.1,24
			z"/>
	</g>
</g>
</svg>
